<svg version="1.1" id="Layer_1" xmlns="http://www.w3.org/2000/svg" xmlns:xlink="http://www.w3.org/1999/xlink" x="0px" y="0px"
	 width="100%" viewBox="0 0 2816 1536" enable-background="new 0 0 2816 1536" xml:space="preserve">
<path fill="#FDFDFC" opacity="1.000000" stroke="none" 
	d="
M1798.000000,1538.000000 
	C1198.735229,1538.000000 600.470581,1538.000000 2.102925,1538.000000 
	C2.102925,1026.127319 2.102925,514.254700 2.102925,2.190999 
	C940.431702,2.190999 1878.863403,2.190999 2817.647461,2.190999 
	C2817.647461,513.999817 2817.647461,1025.999878 2817.647461,1538.000000 
	C2478.254150,1538.000000 2138.626953,1538.000000 1798.000000,1538.000000 
M2245.622070,776.019226 
	C2248.670898,775.290833 2253.281250,775.542175 2254.470703,773.646912 
	C2257.798096,768.344604 2263.103271,763.553162 2263.385742,755.232117 
	C2265.933105,754.486145 2268.436035,753.479309 2271.034912,753.035706 
	C2289.910645,749.814697 2304.741455,759.763367 2308.543701,778.531555 
	C2309.656982,784.028259 2309.930420,789.769165 2309.952148,795.400574 
	C2310.073730,827.049316 2310.000732,858.698792 2309.994141,890.348022 
	C2309.993408,893.875427 2309.994141,897.402893 2309.994141,901.219971 
	C2324.861084,901.219971 2338.375732,901.219971 2352.284180,901.219971 
	C2352.516357,899.254578 2352.869629,897.650146 2352.872070,896.045227 
	C2352.922607,860.066589 2353.131592,824.086121 2352.813721,788.110413 
	C2352.734863,779.187744 2351.852295,770.052856 2349.731689,761.409790 
	C2343.969727,737.923340 2329.374756,722.636719 2305.028809,718.667908 
	C2281.071289,714.762329 2259.130371,718.554443 2242.727539,738.796997 
	C2242.002197,739.692261 2240.852051,740.243347 2238.869385,741.724121 
	C2238.308350,734.503906 2237.832764,728.383789 2237.345215,722.109863 
	C2222.995361,722.109863 2209.165283,722.109863 2196.180664,722.109863 
	C2196.180664,782.164917 2196.180664,841.596802 2196.180664,901.236450 
	C2210.843994,901.236450 2224.375488,901.236450 2238.942871,901.236450 
	C2238.942871,897.538940 2238.944336,894.288208 2238.942627,891.037537 
	C2238.928955,862.386780 2238.740967,833.734558 2238.995850,805.086182 
	C2239.083984,795.208557 2238.946045,785.107361 2245.622070,776.019226 
M296.189697,930.822571 
	C296.805878,931.850159 297.422028,932.877686 298.110870,935.177856 
	C299.313263,936.150024 300.515656,937.122192 302.901550,938.725708 
	C308.584412,944.041687 314.267303,949.357727 320.224335,955.874817 
	C321.590393,956.537781 322.956451,957.200806 325.571228,958.238647 
	C328.366608,960.328064 331.161987,962.417480 334.167603,965.861877 
	C339.176605,969.259094 343.925537,973.151672 349.250275,975.947632 
	C359.461975,981.309631 370.753723,983.597290 382.011444,985.483032 
	C385.182587,986.014343 388.713013,984.400818 393.402496,983.547180 
	C394.275299,983.718079 395.148132,983.888977 397.030060,985.147461 
	C401.278168,984.965088 405.526276,984.782776 411.162842,984.364990 
	C413.815735,984.094971 415.759003,984.825317 416.105927,989.196594 
	C417.735291,991.491028 419.364624,993.785522 421.853088,997.076172 
	C422.614410,998.622437 423.375763,1000.168640 424.147644,1003.001343 
	C425.284027,1004.047119 426.420441,1005.092896 428.561462,1006.792786 
	C429.042145,1007.863770 429.522827,1008.934753 430.099609,1011.197144 
	C431.170715,1012.155029 432.241791,1013.112915 434.125641,1014.913940 
	C434.785675,1015.869263 435.445709,1016.824585 436.145477,1019.223572 
	C440.865295,1027.076416 445.306549,1035.259766 457.311340,1036.478394 
	C466.847992,1042.051758 476.384644,1047.625122 486.353821,1054.265991 
	C487.755066,1054.751221 489.156311,1055.236328 492.035858,1055.840210 
	C495.327332,1056.900391 498.618805,1057.960693 502.162506,1059.946167 
	C503.389343,1060.119141 504.616180,1060.292114 507.253418,1060.433716 
	C508.143219,1060.716553 509.033020,1060.999390 510.305084,1062.257812 
	C512.132874,1062.375610 513.960693,1062.493408 517.199463,1062.520386 
	C518.111816,1062.732544 519.024231,1062.944580 520.426575,1064.300415 
	C523.534546,1066.919556 526.680176,1066.631958 531.669373,1064.192749 
	C537.166443,1064.268921 542.663452,1064.345093 549.352600,1065.411987 
	C554.572449,1065.361938 560.073059,1066.348999 564.949097,1065.029053 
	C573.133423,1062.813354 580.974609,1059.259888 588.843201,1055.988281 
	C591.436523,1054.909912 593.668518,1052.962769 597.284973,1050.616089 
	C600.781250,1049.041748 604.277527,1047.467529 608.986694,1045.885254 
	C610.017456,1044.876343 611.048218,1043.867432 612.985046,1042.307251 
	C613.323181,1042.204102 613.661316,1042.101074 615.207520,1041.895630 
	C616.196228,1040.794556 617.184875,1039.693604 618.768433,1037.546631 
	C619.821045,1037.019531 620.873657,1036.492432 623.221436,1035.896973 
	C624.846069,1034.229736 626.470642,1032.562622 629.004761,1029.990967 
	C630.636169,1028.642944 632.267639,1027.294922 635.303345,1025.871582 
	C642.370605,1021.589478 648.717041,1016.730103 650.135315,1006.367493 
	C652.406921,1002.936401 654.678528,999.505249 658.154541,995.668335 
	C664.982056,986.017151 664.982056,986.016968 677.386536,986.012512 
	C684.370728,986.010010 691.468201,986.801331 698.313232,985.824280 
	C709.198669,984.270630 720.586853,983.095215 729.163391,972.299988 
	C732.530273,970.767761 735.897156,969.235535 740.580383,967.830383 
	C741.734924,966.771851 742.889526,965.713318 744.665771,963.966187 
	C744.665771,963.966187 745.582642,963.824951 746.845093,963.870667 
	C747.911743,962.799561 748.978333,961.728394 750.877014,959.603516 
	C753.844849,957.705933 756.812622,955.808350 761.080750,953.873291 
	C762.082092,952.664124 763.083374,951.454895 764.521790,949.224915 
	C765.150024,948.863220 765.778259,948.501465 767.960144,948.107849 
	C770.204102,947.777771 773.861755,948.170532 774.460632,946.999207 
	C778.114014,939.855042 785.419189,934.656677 786.325073,924.388916 
	C788.187195,921.299255 790.049316,918.209595 791.810730,915.228821 
	C791.810730,915.228821 791.737671,915.485413 792.442566,914.090698 
	C801.492249,897.900513 807.379822,880.609680 809.352417,862.185486 
	C812.765320,830.307983 806.738281,800.558105 788.070984,772.363708 
	C789.334595,769.061157 790.244690,765.566895 791.915283,762.484985 
	C813.148682,723.313965 816.271606,683.111938 799.534485,641.505188 
	C776.629944,584.566833 716.742798,552.201904 664.697144,557.532349 
	C662.963196,555.229126 661.041504,553.041809 659.534241,550.598694 
	C656.398315,545.515686 653.991150,539.908875 650.396362,535.194458 
	C614.854187,488.582886 568.154846,468.859650 510.331299,480.329010 
	C470.022552,488.324310 439.868774,511.712067 419.904907,547.863892 
	C417.987396,551.336243 415.920013,554.725891 412.098938,557.784546 
	C351.693939,553.585876 293.704376,591.864990 274.755341,650.944946 
	C271.925781,659.766968 270.218933,668.948975 267.239105,678.393921 
	C267.370911,679.561340 267.502716,680.728699 267.822906,683.747498 
	C267.745789,691.206787 267.668671,698.666077 266.778076,706.809204 
	C267.234985,708.556519 267.691925,710.303833 268.915924,713.543640 
	C269.484894,717.933289 270.053894,722.322937 270.297668,727.946960 
	C270.947479,729.314453 271.597321,730.681946 273.165344,733.282898 
	C274.029022,736.215088 274.892700,739.147278 274.926147,742.754028 
	C275.812866,743.847595 276.699615,744.941101 278.439453,747.258911 
	C279.636169,749.993958 280.832886,752.728943 282.090515,755.356018 
	C282.090515,755.356018 282.125854,755.139832 282.889435,756.605713 
	C284.377472,759.532593 285.865540,762.459412 285.849060,766.210938 
	C283.052063,775.942627 279.099396,785.132874 274.492188,794.192932 
	C271.861877,799.365540 269.019165,805.405945 271.559723,813.315918 
	C271.173218,814.190063 270.786713,815.064148 269.280151,816.569763 
	C266.723206,822.142700 263.931030,827.692627 267.831177,835.730713 
	C267.763153,843.859741 267.695129,851.988831 266.730743,860.961426 
	C265.740845,863.757019 265.098206,866.460815 269.303925,869.323792 
	C269.356598,870.271912 269.409271,871.219971 268.578217,873.170776 
	C269.060577,877.807495 268.380524,882.842834 273.703094,887.322266 
	C274.598907,890.537842 275.494720,893.753418 276.223602,898.521423 
	C277.702301,901.835022 276.388672,906.675842 281.999664,908.817139 
	C281.999664,908.817139 282.099152,909.774841 282.010101,911.186768 
	C283.230469,912.799438 284.450836,914.412170 286.234039,916.505798 
	C286.234039,916.505798 286.313904,917.241821 286.117432,918.816895 
	C286.923737,924.371216 288.525726,929.283142 296.189697,930.822571 
M1951.617676,851.486145 
	C1956.953491,861.999695 1963.958130,871.240295 1972.782471,879.069519 
	C1995.188721,898.949280 2021.762329,906.759338 2051.205566,905.422424 
	C2095.372559,903.416992 2127.880371,883.403687 2146.278809,842.423279 
	C2158.931885,814.239990 2161.678223,784.756104 2157.065430,754.439514 
	C2153.812256,733.058228 2147.123779,712.897278 2133.476562,695.797058 
	C2110.582275,667.109924 2080.018311,655.351013 2043.875366,655.923340 
	C1997.300781,656.660889 1958.637939,683.904175 1943.739258,728.013000 
	C1929.711670,769.542297 1930.794556,810.504517 1951.617676,851.486145 
M953.619507,782.290710 
	C941.135925,818.445740 928.634644,854.594604 916.199646,890.766296 
	C915.094177,893.981934 914.420227,897.345947 913.398865,901.195435 
	C929.157898,901.195435 943.365540,901.195435 958.254822,901.195435 
	C964.886230,881.208313 971.457458,861.402649 978.104858,841.367371 
	C981.172363,841.182739 983.781006,840.894409 986.390259,840.889221 
	C1010.703796,840.840637 1035.017334,840.847717 1059.330933,840.822998 
	C1068.259888,840.813904 1068.165039,840.826782 1071.069580,849.388245 
	C1076.926636,866.652344 1082.897705,883.877747 1088.771606,900.973328 
	C1105.075684,900.973328 1120.535645,900.973328 1136.987671,900.973328 
	C1108.121460,820.070312 1079.561768,740.025879 1051.034058,660.071533 
	C1032.037720,660.071533 1014.148010,660.071533 995.610779,660.071533 
	C981.726074,700.395874 967.886292,740.589966 953.619507,782.290710 
M1162.388672,741.101013 
	C1162.388672,817.625977 1162.388672,894.150940 1162.388672,970.880859 
	C1177.556152,970.880859 1191.342651,970.880859 1205.988770,970.880859 
	C1205.988770,942.466919 1205.988770,914.737976 1205.988770,885.212891 
	C1214.611084,894.440735 1223.186401,900.654968 1233.776367,903.098755 
	C1269.457764,911.332581 1302.300293,899.402466 1319.105103,865.817932 
	C1337.661133,828.733337 1336.749756,790.013794 1317.695801,753.215210 
	C1292.915527,705.358032 1228.042114,708.662109 1207.962891,740.731140 
	C1207.737183,741.091492 1206.833740,741.027466 1205.591064,741.311279 
	C1204.906860,734.780579 1204.229858,728.317749 1203.515259,721.495972 
	C1190.895630,721.495972 1178.910034,721.477356 1166.924805,721.522949 
	C1165.632690,721.527832 1164.341919,721.905579 1162.343262,722.222534 
	C1162.343262,727.944885 1162.343262,733.547180 1162.388672,741.101013 
M2386.924805,807.503845 
	C2387.314697,815.148132 2387.268555,822.844055 2388.166504,830.428223 
	C2393.222168,873.134216 2420.927246,900.877075 2463.541992,905.187134 
	C2489.852539,907.848206 2513.918945,902.096741 2533.452637,882.843506 
	C2542.601074,873.826721 2548.561035,863.123779 2551.716064,850.183472 
	C2536.866211,850.183472 2522.964111,850.183472 2509.339844,850.183472 
	C2501.802002,863.979248 2494.841553,869.553406 2482.936768,871.607422 
	C2453.197998,876.738464 2428.425293,853.067261 2431.723877,821.973572 
	C2472.242920,821.973572 2512.834229,821.973572 2553.944824,821.973572 
	C2555.615479,804.690552 2555.089355,788.220642 2549.891113,772.117371 
	C2540.208252,742.122559 2520.076904,723.885010 2488.794189,718.710632 
	C2482.271484,717.631592 2475.512207,717.579346 2468.871826,717.685181 
	C2431.292725,718.284302 2401.809082,740.874451 2391.854492,777.192017 
	C2389.321289,786.434082 2388.599854,796.172607 2386.924805,807.503845 
M1470.038696,720.828552 
	C1458.351440,717.557312 1446.404785,716.710632 1434.408936,717.887207 
	C1401.389404,721.125854 1377.924438,737.839355 1364.831909,768.481384 
	C1355.517944,790.280029 1353.816406,813.060059 1358.605713,836.041321 
	C1365.801636,870.570496 1385.658447,894.049744 1420.646606,902.975037 
	C1433.344116,906.214050 1446.333130,906.385986 1459.313354,904.438721 
	C1488.543823,900.053528 1509.899048,884.823486 1521.742554,857.603943 
	C1532.311523,833.313660 1533.976074,807.873596 1527.399902,782.317627 
	C1519.682007,752.325073 1502.351929,730.529114 1470.038696,720.828552 
M1894.912720,760.125305 
	C1890.639648,754.226013 1887.105103,747.571106 1881.970703,742.553223 
	C1854.223267,715.435242 1821.227661,711.531799 1785.810547,723.192627 
	C1764.467529,730.219604 1749.828125,745.679626 1740.794067,765.976624 
	C1732.506714,784.596008 1730.108276,804.372375 1732.348389,824.610291 
	C1734.085205,840.302673 1738.035889,855.411743 1746.782959,868.786011 
	C1764.265991,895.517700 1789.859863,906.170715 1820.970093,905.595642 
	C1863.980957,904.800537 1895.796509,878.599792 1904.188354,836.490173 
	C1909.336304,810.657715 1906.998291,785.480835 1894.912720,760.125305 
M1696.675537,689.003479 
	C1696.675537,675.179932 1696.675537,661.356445 1696.675537,647.684570 
	C1681.531616,647.684570 1667.785522,647.684570 1654.021606,647.684570 
	C1654.021606,732.560791 1654.021606,816.639404 1654.021606,901.077148 
	C1668.347046,901.077148 1682.121460,901.077148 1696.681274,901.077148 
	C1696.681274,830.653809 1696.681274,760.827515 1696.675537,689.003479 
M1565.478271,791.000122 
	C1565.478271,827.532043 1565.478271,864.063904 1565.478271,901.161621 
	C1580.210938,901.161621 1594.005859,901.161621 1608.311523,901.161621 
	C1608.311523,816.447632 1608.311523,732.115662 1608.311523,647.692261 
	C1593.864502,647.692261 1580.060669,647.692261 1565.472168,647.692261 
	C1565.472168,695.226379 1565.472168,742.113159 1565.478271,791.000122 
z"/>
<path fill="#7AB870" opacity="1.000000" stroke="none" 
	d="
M413.922180,558.153870 
	C415.920013,554.725891 417.987396,551.336243 419.904907,547.863892 
	C439.868774,511.712067 470.022552,488.324310 510.331299,480.329010 
	C568.154846,468.859650 614.854187,488.582886 650.396362,535.194458 
	C653.991150,539.908875 656.398315,545.515686 659.534241,550.598694 
	C661.041504,553.041809 662.963196,555.229126 665.336182,558.618713 
	C666.499146,562.959595 666.913757,566.236267 667.567139,569.464539 
	C669.670349,579.855286 672.866516,590.138184 673.805969,600.627014 
	C675.660950,621.337708 672.851135,641.520996 665.492004,661.260620 
	C653.771729,692.697937 632.380615,715.404968 603.931763,731.909790 
	C590.092102,739.939026 575.117249,745.514099 559.188721,747.972290 
	C556.160645,748.439575 554.161255,749.359802 552.972412,751.958252 
	C549.906738,750.433716 547.471436,748.734680 544.911926,748.520630 
	C538.822510,748.011658 532.674377,748.205200 525.694458,748.084229 
	C511.801849,744.811646 498.764648,741.569641 485.033264,738.165894 
	C472.913025,731.317078 461.486908,724.630005 449.980347,717.258240 
	C446.221985,712.341125 442.856598,707.780212 438.812500,703.932739 
	C420.479462,686.491394 411.520111,664.323853 405.907654,640.322021 
	C402.363403,625.165039 404.499023,609.839905 404.125946,594.590332 
	C404.086731,592.986450 404.726776,591.345825 405.165222,589.753540 
	C408.066895,579.215576 410.999573,568.686096 413.922180,558.153870 
z"/>
<path fill="#5C9151" opacity="1.000000" stroke="none" 
	d="
M553.546265,752.458862 
	C554.161255,749.359802 556.160645,748.439575 559.188721,747.972290 
	C575.117249,745.514099 590.092102,739.939026 603.931763,731.909790 
	C632.380615,715.404968 653.771729,692.697937 665.492004,661.260620 
	C672.851135,641.520996 675.660950,621.337708 673.805969,600.627014 
	C672.866516,590.138184 669.670349,579.855286 667.567139,569.464539 
	C666.913757,566.236267 666.499146,562.959595 665.979858,558.863525 
	C716.742798,552.201904 776.629944,584.566833 799.534485,641.505188 
	C816.271606,683.111938 813.148682,723.313965 791.915283,762.484985 
	C790.244690,765.566895 789.334595,769.061157 787.417969,773.212280 
	C781.120300,779.120239 775.028137,783.767090 769.914368,789.315735 
	C754.174805,806.393555 735.008667,817.171692 712.953918,824.296753 
	C686.878540,832.720764 661.290344,830.808472 635.609131,824.078125 
	C617.929382,819.444702 603.361023,808.906433 588.905212,798.145325 
	C580.240723,791.695129 573.201721,783.952454 566.748108,775.465820 
	C565.652100,774.024536 563.762024,773.187134 562.131409,771.339050 
	C559.198059,764.557861 556.372192,758.508362 553.546265,752.458862 
z"/>
<path fill="#9CC692" opacity="1.000000" stroke="none" 
	d="
M424.137085,1001.714905 
	C423.375763,1000.168640 422.614410,998.622437 421.541626,995.929626 
	C419.511871,992.471863 417.793518,990.160706 416.075195,987.849487 
	C415.759003,984.825317 413.815735,984.094971 410.350464,984.217773 
	C409.538055,984.070557 409.286255,983.548706 409.906433,983.105957 
	C413.374969,981.584900 413.476410,979.735168 412.484497,977.115784 
	C405.712799,959.232971 402.902039,940.756287 403.693115,921.609436 
	C404.833832,893.999329 413.104645,868.963013 429.887329,846.955078 
	C435.474487,839.628235 441.759979,832.833801 448.342896,825.518311 
	C461.072693,814.304260 475.053375,806.350037 490.589691,799.696411 
	C502.753754,796.453430 513.679565,791.077881 526.923828,791.850220 
	C535.144958,791.757812 542.452576,791.769958 549.814575,792.535156 
	C538.488953,816.995789 537.273987,842.398071 540.739929,867.507751 
	C548.601868,924.465393 591.787109,969.439026 647.857727,981.464478 
	C652.053711,982.364441 656.201904,983.486938 660.361877,985.195007 
	C659.217651,989.280701 658.083862,992.677368 656.950073,996.074097 
	C654.678528,999.505249 652.406921,1002.936401 649.357178,1007.249512 
	C643.685730,1014.070068 638.792419,1020.008545 633.899109,1025.947021 
	C632.267639,1027.294922 630.636169,1028.642944 627.919556,1030.358154 
	C625.198364,1032.472046 623.562317,1034.218750 621.926270,1035.965332 
	C620.873657,1036.492432 619.821045,1037.019531 617.860474,1038.049316 
	C615.968201,1039.700684 614.983887,1040.849365 613.999512,1041.998047 
	C613.661316,1042.101074 613.323181,1042.204102 611.941467,1042.496460 
	C609.856506,1043.754761 608.815125,1044.823975 607.773804,1045.893188 
	C604.277527,1047.467529 600.781250,1049.041748 595.985779,1050.809570 
	C579.970947,1056.090698 565.624390,1062.529907 549.710449,1063.249146 
	C549.177246,1063.273193 548.676392,1064.014404 548.160522,1064.421387 
	C542.663452,1064.345093 537.166443,1064.268921 530.219727,1063.816406 
	C525.825623,1063.345581 522.881104,1063.251099 519.936584,1063.156494 
	C519.024231,1062.944580 518.111816,1062.732544 516.086792,1062.042969 
	C513.290405,1061.471191 511.606598,1061.376709 509.922821,1061.282227 
	C509.033020,1060.999390 508.143219,1060.716553 506.216187,1059.964844 
	C504.089417,1059.337646 502.999817,1059.179321 501.910248,1059.020996 
	C498.618805,1057.960693 495.327332,1056.900391 491.021484,1055.242310 
	C488.645172,1054.162354 487.283234,1053.680420 485.921326,1053.198364 
	C476.384644,1047.625122 466.847992,1042.051758 456.368469,1035.640381 
	C448.985626,1029.128296 442.545685,1023.454102 436.105713,1017.779907 
	C435.445709,1016.824585 434.785675,1015.869263 433.752991,1013.898438 
	C432.254730,1011.923889 431.129120,1010.964783 430.003510,1010.005737 
	C429.522827,1008.934753 429.042145,1007.863770 428.048096,1005.848328 
	C426.402191,1003.840881 425.269623,1002.777893 424.137085,1001.714905 
z"/>
<path fill="#2D7644" opacity="1.000000" stroke="none" 
	d="
M660.372314,984.506042 
	C656.201904,983.486938 652.053711,982.364441 647.857727,981.464478 
	C591.787109,969.439026 548.601868,924.465393 540.739929,867.507751 
	C537.273987,842.398071 538.488953,816.995789 550.292114,792.063232 
	C554.556396,784.582458 558.397583,778.326599 562.238831,772.070740 
	C563.762024,773.187134 565.652100,774.024536 566.748108,775.465820 
	C573.201721,783.952454 580.240723,791.695129 588.905212,798.145325 
	C603.361023,808.906433 617.929382,819.444702 635.609131,824.078125 
	C661.290344,830.808472 686.878540,832.720764 712.953918,824.296753 
	C735.008667,817.171692 754.174805,806.393555 769.914368,789.315735 
	C775.028137,783.767090 781.120300,779.120239 787.466064,773.974243 
	C806.738281,800.558105 812.765320,830.307983 809.352417,862.185486 
	C807.379822,880.609680 801.492249,897.900513 792.217285,914.782837 
	C791.991943,915.475037 791.911499,915.119995 791.911499,915.119995 
	C790.049316,918.209595 788.187195,921.299255 785.541992,925.439575 
	C778.641479,933.706787 772.523987,940.923279 766.406494,948.139709 
	C765.778259,948.501465 765.150024,948.863220 763.716309,949.839233 
	C761.867310,951.605957 760.823914,952.758362 759.780457,953.910828 
	C756.812622,955.808350 753.844849,957.705933 749.889282,960.196106 
	C747.795227,961.800781 746.688965,962.812866 745.582642,963.824951 
	C745.582642,963.824951 744.665771,963.966187 743.765503,964.360229 
	C741.664795,965.737244 740.464417,966.720276 739.264038,967.703369 
	C735.897156,969.235535 732.530273,970.767761 727.906189,972.779541 
	C712.370605,979.030884 697.610596,982.763245 682.191528,983.596375 
	C674.923279,983.989136 667.645691,984.208252 660.372314,984.506042 
z"/>
<path fill="#164524" opacity="1.000000" stroke="none" 
	d="
M1951.258057,850.838867 
	C1930.794556,810.504517 1929.711670,769.542297 1943.739258,728.013000 
	C1958.637939,683.904175 1997.300781,656.660889 2043.875366,655.923340 
	C2080.018311,655.351013 2110.582275,667.109924 2133.476562,695.797058 
	C2147.123779,712.897278 2153.812256,733.058228 2157.065430,754.439514 
	C2161.678223,784.756104 2158.931885,814.239990 2146.278809,842.423279 
	C2127.880371,883.403687 2095.372559,903.416992 2051.205566,905.422424 
	C2021.762329,906.759338 1995.188721,898.949280 1972.782471,879.069519 
	C1963.958130,871.240295 1956.953491,861.999695 1951.258057,850.838867 
M2091.873779,711.951477 
	C2060.913086,679.805054 2010.231812,687.939514 1990.930298,728.000610 
	C1981.815674,746.918213 1979.883301,766.949402 1981.200928,787.432495 
	C1982.405029,806.152039 1985.505127,824.496582 1995.981934,840.715027 
	C2008.863892,860.657349 2027.105225,869.880920 2050.863281,868.685120 
	C2074.750732,867.482727 2091.736084,856.239014 2101.968994,834.686218 
	C2114.468994,808.357605 2115.778076,780.711731 2110.423584,752.688477 
	C2108.652588,743.420715 2104.039551,734.695984 2100.433105,724.338989 
	C2097.725586,720.616516 2095.018066,716.894043 2091.873779,711.951477 
z"/>
<path fill="#164523" opacity="1.000000" stroke="none" 
	d="
M953.833008,781.537354 
	C967.886292,740.589966 981.726074,700.395874 995.610779,660.071533 
	C1014.148010,660.071533 1032.037720,660.071533 1051.034058,660.071533 
	C1079.561768,740.025879 1108.121460,820.070312 1136.987671,900.973328 
	C1120.535645,900.973328 1105.075684,900.973328 1088.771606,900.973328 
	C1082.897705,883.877747 1076.926636,866.652344 1071.069580,849.388245 
	C1068.165039,840.826782 1068.259888,840.813904 1059.330933,840.822998 
	C1035.017334,840.847717 1010.703796,840.840637 986.390259,840.889221 
	C983.781006,840.894409 981.172363,841.182739 978.104858,841.367371 
	C971.457458,861.402649 964.886230,881.208313 958.254822,901.195435 
	C943.365540,901.195435 929.157898,901.195435 913.398865,901.195435 
	C914.420227,897.345947 915.094177,893.981934 916.199646,890.766296 
	C928.634644,854.594604 941.135925,818.445740 953.833008,781.537354 
M1006.438232,749.373474 
	C1000.965515,767.242554 994.046448,784.694458 989.510742,803.922424 
	C1008.488098,803.922424 1026.082397,803.922424 1043.676758,803.922424 
	C1047.621216,803.922424 1051.565796,803.922424 1056.845459,803.922424 
	C1045.254883,767.919922 1034.014160,733.004272 1022.170715,696.216309 
	C1016.691956,714.835815 1011.832825,731.349121 1006.438232,749.373474 
z"/>
<path fill="#174625" opacity="1.000000" stroke="none" 
	d="
M1162.365967,740.125244 
	C1162.343262,733.547180 1162.343262,727.944885 1162.343262,722.222534 
	C1164.341919,721.905579 1165.632690,721.527832 1166.924805,721.522949 
	C1178.910034,721.477356 1190.895630,721.495972 1203.515259,721.495972 
	C1204.229858,728.317749 1204.906860,734.780579 1205.591064,741.311279 
	C1206.833740,741.027466 1207.737183,741.091492 1207.962891,740.731140 
	C1228.042114,708.662109 1292.915527,705.358032 1317.695801,753.215210 
	C1336.749756,790.013794 1337.661133,828.733337 1319.105103,865.817932 
	C1302.300293,899.402466 1269.457764,911.332581 1233.776367,903.098755 
	C1223.186401,900.654968 1214.611084,894.440735 1205.988770,885.212891 
	C1205.988770,914.737976 1205.988770,942.466919 1205.988770,970.880859 
	C1191.342651,970.880859 1177.556152,970.880859 1162.388672,970.880859 
	C1162.388672,894.150940 1162.388672,817.625977 1162.365967,740.125244 
M1211.170532,772.642578 
	C1200.977539,797.514771 1200.761597,822.727173 1210.367554,847.577271 
	C1215.849976,861.760315 1227.446045,869.169312 1242.831177,870.394653 
	C1258.781250,871.665100 1271.085693,865.617554 1278.456543,851.528076 
	C1292.992676,823.741760 1291.959717,795.778992 1276.719971,768.666260 
	C1273.827271,763.520081 1268.247192,759.158447 1262.918091,756.242065 
	C1246.007324,746.987427 1222.554077,752.294067 1211.170532,772.642578 
z"/>
<path fill="#5C9068" opacity="1.000000" stroke="none" 
	d="
M413.010559,557.969238 
	C410.999573,568.686096 408.066895,579.215576 405.165222,589.753540 
	C404.726776,591.345825 404.086731,592.986450 404.125946,594.590332 
	C404.499023,609.839905 402.363403,625.165039 405.907654,640.322021 
	C411.520111,664.323853 420.479462,686.491394 438.812500,703.932739 
	C442.856598,707.780212 446.221985,712.341125 449.165985,717.291443 
	C446.787262,717.846375 444.957733,718.097168 443.525635,717.457764 
	C424.501648,708.964539 404.153046,710.234802 384.779388,712.758728 
	C354.635284,716.685974 328.045929,730.031128 306.562134,752.340820 
	C301.348419,757.754944 295.810028,762.856384 290.000244,767.798828 
	C288.837616,766.792725 288.095612,766.089539 287.353607,765.386292 
	C285.865540,762.459412 284.377472,759.532593 282.470398,755.974182 
	C282.051361,755.342651 282.029602,755.463989 282.029602,755.463989 
	C280.832886,752.728943 279.636169,749.993958 278.047485,746.068726 
	C277.022491,743.945557 276.389435,743.012512 275.756378,742.079468 
	C274.892700,739.147278 274.029022,736.215088 272.866760,732.096436 
	C271.919739,729.510864 271.271301,728.111694 270.622864,726.712585 
	C270.053894,722.322937 269.484894,717.933289 268.754150,712.213440 
	C268.258759,709.297302 267.925171,707.711304 267.591583,706.125366 
	C267.668671,698.666077 267.745789,691.206787 268.041687,682.390625 
	C268.171204,680.010620 268.081970,678.987549 267.992737,677.964478 
	C270.218933,668.948975 271.925781,659.766968 274.755341,650.944946 
	C293.704376,591.864990 351.693939,553.585876 413.010559,557.969238 
z"/>
<path fill="#5A9150" opacity="1.000000" stroke="none" 
	d="
M447.726257,825.796021 
	C441.759979,832.833801 435.474487,839.628235 429.887329,846.955078 
	C413.104645,868.963013 404.833832,893.999329 403.693115,921.609436 
	C402.902039,940.756287 405.712799,959.232971 412.484497,977.115784 
	C413.476410,979.735168 413.374969,981.584900 409.145691,983.069580 
	C403.850189,983.670654 399.935577,983.865295 396.020935,984.059937 
	C395.148132,983.888977 394.275299,983.718079 392.115967,983.237122 
	C379.643768,980.298828 368.274536,978.259338 357.333221,974.847595 
	C349.252197,972.327698 341.729034,968.018799 333.957336,964.506958 
	C331.161987,962.417480 328.366608,960.328064 324.724609,957.518616 
	C322.568695,956.090271 321.259430,955.381958 319.950165,954.673706 
	C314.267303,949.357727 308.584412,944.041687 302.215942,937.824829 
	C300.366333,935.917725 299.202271,934.911499 298.038208,933.905273 
	C297.422028,932.877686 296.805878,931.850159 295.571350,929.818726 
	C292.073334,924.957153 289.193634,921.099487 286.313904,917.241821 
	C286.313904,917.241821 286.234039,916.505798 285.926636,915.642029 
	C284.445862,913.110413 283.272522,911.442627 282.099182,909.774841 
	C282.099152,909.774841 281.999664,908.817139 281.713501,907.740356 
	C279.748383,903.432068 278.069458,900.200500 276.390564,896.968994 
	C275.494720,893.753418 274.598907,890.537842 273.405243,885.955200 
	C271.892242,880.448181 270.677094,876.308105 269.461945,872.168091 
	C269.409271,871.219971 269.356598,870.271912 269.175476,868.036011 
	C268.573730,864.538147 268.100403,862.328003 267.627075,860.117859 
	C267.695129,851.988831 267.763153,843.859741 268.025055,834.130981 
	C268.946045,827.000244 269.673126,821.469299 270.400208,815.938293 
	C270.786713,815.064148 271.173218,814.190063 271.953979,812.002563 
	C276.247009,797.580933 281.046326,784.889954 290.152893,773.912292 
	C297.035278,779.440063 303.523041,784.576477 309.263000,790.444336 
	C324.189667,805.703735 341.737427,816.386963 361.975677,823.138550 
	C372.176636,826.541626 382.525116,828.224548 393.129425,828.658691 
	C400.991852,828.980591 408.891022,829.047546 416.748383,828.681641 
	C425.647736,828.267151 434.557800,827.612976 443.076355,824.414185 
	C444.283234,823.961060 446.159729,825.291260 447.726257,825.796021 
z"/>
<path fill="#164624" opacity="1.000000" stroke="none" 
	d="
M2386.985352,806.593445 
	C2388.599854,796.172607 2389.321289,786.434082 2391.854492,777.192017 
	C2401.809082,740.874451 2431.292725,718.284302 2468.871826,717.685181 
	C2475.512207,717.579346 2482.271484,717.631592 2488.794189,718.710632 
	C2520.076904,723.885010 2540.208252,742.122559 2549.891113,772.117371 
	C2555.089355,788.220642 2555.615479,804.690552 2553.944824,821.973572 
	C2512.834229,821.973572 2472.242920,821.973572 2431.723877,821.973572 
	C2428.425293,853.067261 2453.197998,876.738464 2482.936768,871.607422 
	C2494.841553,869.553406 2501.802002,863.979248 2509.339844,850.183472 
	C2522.964111,850.183472 2536.866211,850.183472 2551.716064,850.183472 
	C2548.561035,863.123779 2542.601074,873.826721 2533.452637,882.843506 
	C2513.918945,902.096741 2489.852539,907.848206 2463.541992,905.187134 
	C2420.927246,900.877075 2393.222168,873.134216 2388.166504,830.428223 
	C2387.268555,822.844055 2387.314697,815.148132 2386.985352,806.593445 
M2455.582520,752.101685 
	C2440.356201,759.841003 2430.715576,777.032104 2433.050537,793.335510 
	C2458.946289,792.790161 2484.970459,793.749329 2511.537354,792.856262 
	C2510.782715,788.599548 2510.380127,785.667236 2509.734619,782.789307 
	C2503.689697,755.834961 2488.123047,745.527832 2460.875488,750.429321 
	C2459.579102,750.662415 2458.342285,751.223328 2455.582520,752.101685 
z"/>
<path fill="#164624" opacity="1.000000" stroke="none" 
	d="
M1470.805786,721.093262 
	C1502.351929,730.529114 1519.682007,752.325073 1527.399902,782.317627 
	C1533.976074,807.873596 1532.311523,833.313660 1521.742554,857.603943 
	C1509.899048,884.823486 1488.543823,900.053528 1459.313354,904.438721 
	C1446.333130,906.385986 1433.344116,906.214050 1420.646606,902.975037 
	C1385.658447,894.049744 1365.801636,870.570496 1358.605713,836.041321 
	C1353.816406,813.060059 1355.517944,790.280029 1364.831909,768.481384 
	C1377.924438,737.839355 1401.389404,721.125854 1434.408936,717.887207 
	C1446.404785,716.710632 1458.351440,717.557312 1470.805786,721.093262 
M1476.158325,769.066162 
	C1466.917358,754.208740 1453.026245,749.943726 1436.558716,751.925354 
	C1420.874634,753.812744 1411.692871,763.993469 1406.235352,777.647400 
	C1403.436035,784.650818 1401.845093,792.348267 1400.994873,799.877258 
	C1399.018311,817.379883 1400.885010,834.537415 1409.590576,850.213074 
	C1417.771484,864.944153 1430.643555,871.960938 1447.552612,871.155762 
	C1464.533081,870.347229 1475.831665,861.099915 1481.051880,845.639465 
	C1489.642334,820.197449 1490.369629,794.738892 1476.158325,769.066162 
z"/>
<path fill="#164524" opacity="1.000000" stroke="none" 
	d="
M1895.278931,760.777100 
	C1906.998291,785.480835 1909.336304,810.657715 1904.188354,836.490173 
	C1895.796509,878.599792 1863.980957,904.800537 1820.970093,905.595642 
	C1789.859863,906.170715 1764.265991,895.517700 1746.782959,868.786011 
	C1738.035889,855.411743 1734.085205,840.302673 1732.348389,824.610291 
	C1730.108276,804.372375 1732.506714,784.596008 1740.794067,765.976624 
	C1749.828125,745.679626 1764.467529,730.219604 1785.810547,723.192627 
	C1821.227661,711.531799 1854.223267,715.435242 1881.970703,742.553223 
	C1887.105103,747.571106 1890.639648,754.226013 1895.278931,760.777100 
M1843.161743,759.061218 
	C1818.500854,743.669128 1791.559570,751.292786 1781.507202,777.461243 
	C1772.422119,801.112122 1772.741211,825.116516 1783.697021,848.318359 
	C1789.063110,859.682251 1797.781982,867.629944 1810.580322,870.103943 
	C1832.736938,874.387146 1849.739380,864.711975 1857.789917,843.109558 
	C1862.768921,829.749451 1863.609497,815.854553 1862.504639,801.758972 
	C1861.797241,792.735718 1860.236694,783.962036 1855.457275,774.669922 
	C1851.608398,769.870605 1847.759399,765.071289 1843.161743,759.061218 
z"/>
<path fill="#154523" opacity="1.000000" stroke="none" 
	d="
M2244.006348,776.002808 
	C2238.946045,785.107361 2239.083984,795.208557 2238.995850,805.086182 
	C2238.740967,833.734558 2238.928955,862.386780 2238.942627,891.037537 
	C2238.944336,894.288208 2238.942871,897.538940 2238.942871,901.236450 
	C2224.375488,901.236450 2210.843994,901.236450 2196.180664,901.236450 
	C2196.180664,841.596802 2196.180664,782.164917 2196.180664,722.109863 
	C2209.165283,722.109863 2222.995361,722.109863 2237.345215,722.109863 
	C2237.832764,728.383789 2238.308350,734.503906 2238.869385,741.724121 
	C2240.852051,740.243347 2242.002197,739.692261 2242.727539,738.796997 
	C2259.130371,718.554443 2281.071289,714.762329 2305.028809,718.667908 
	C2329.374756,722.636719 2343.969727,737.923340 2349.731689,761.409790 
	C2351.852295,770.052856 2352.734863,779.187744 2352.813721,788.110413 
	C2353.131592,824.086121 2352.922607,860.066589 2352.872070,896.045227 
	C2352.869629,897.650146 2352.516357,899.254578 2352.284180,901.219971 
	C2338.375732,901.219971 2324.861084,901.219971 2309.994141,901.219971 
	C2309.994141,897.402893 2309.993408,893.875427 2309.994141,890.348022 
	C2310.000732,858.698792 2310.073730,827.049316 2309.952148,795.400574 
	C2309.930420,789.769165 2309.656982,784.028259 2308.543701,778.531555 
	C2304.741455,759.763367 2289.910645,749.814697 2271.034912,753.035706 
	C2268.436035,753.479309 2265.933105,754.486145 2262.008057,755.733398 
	C2252.384521,760.549744 2246.698242,767.017212 2244.006348,776.002808 
z"/>
<path fill="#124321" opacity="1.000000" stroke="none" 
	d="
M1696.678467,690.002319 
	C1696.681274,760.827515 1696.681274,830.653809 1696.681274,901.077148 
	C1682.121460,901.077148 1668.347046,901.077148 1654.021606,901.077148 
	C1654.021606,816.639404 1654.021606,732.560791 1654.021606,647.684570 
	C1667.785522,647.684570 1681.531616,647.684570 1696.675537,647.684570 
	C1696.675537,661.356445 1696.675537,675.179932 1696.678467,690.002319 
z"/>
<path fill="#124321" opacity="1.000000" stroke="none" 
	d="
M1565.475220,790.000061 
	C1565.472168,742.113159 1565.472168,695.226379 1565.472168,647.692261 
	C1580.060669,647.692261 1593.864502,647.692261 1608.311523,647.692261 
	C1608.311523,732.115662 1608.311523,816.447632 1608.311523,901.161621 
	C1594.005859,901.161621 1580.210938,901.161621 1565.478271,901.161621 
	C1565.478271,864.063904 1565.478271,827.532043 1565.475220,790.000061 
z"/>
<path fill="#F1F5F0" opacity="1.000000" stroke="none" 
	d="
M660.361877,985.195007 
	C667.645691,984.208252 674.923279,983.989136 682.191528,983.596375 
	C697.610596,982.763245 712.370605,979.030884 727.360596,973.227173 
	C720.586853,983.095215 709.198669,984.270630 698.313232,985.824280 
	C691.468201,986.801331 684.370728,986.010010 677.386536,986.012512 
	C664.982056,986.016968 664.982056,986.017151 657.552307,995.871216 
	C658.083862,992.677368 659.217651,989.280701 660.361877,985.195007 
z"/>
<path fill="#F1F5F0" opacity="1.000000" stroke="none" 
	d="
M334.062469,965.184448 
	C341.729034,968.018799 349.252197,972.327698 357.333221,974.847595 
	C368.274536,978.259338 379.643768,980.298828 391.454041,983.349060 
	C388.713013,984.400818 385.182587,986.014343 382.011444,985.483032 
	C370.753723,983.597290 359.461975,981.309631 349.250275,975.947632 
	C343.925537,973.151672 339.176605,969.259094 334.062469,965.184448 
z"/>
<path fill="#F1F5F0" opacity="1.000000" stroke="none" 
	d="
M289.417542,773.854187 
	C281.046326,784.889954 276.247009,797.580933 271.932739,811.273743 
	C269.019165,805.405945 271.861877,799.365540 274.492188,794.192932 
	C279.099396,785.132874 283.052063,775.942627 286.601318,765.798584 
	C288.095612,766.089539 288.837616,766.792725 289.937042,768.528931 
	C290.002167,770.992676 289.709839,772.423401 289.417542,773.854187 
z"/>
<path fill="#F1F5F0" opacity="1.000000" stroke="none" 
	d="
M2244.814209,776.010986 
	C2246.698242,767.017212 2252.384521,760.549744 2261.324219,756.241150 
	C2263.103271,763.553162 2257.798096,768.344604 2254.470703,773.646912 
	C2253.281250,775.542175 2248.670898,775.290833 2244.814209,776.010986 
z"/>
<path fill="#F1F5F0" opacity="1.000000" stroke="none" 
	d="
M548.756592,1064.916748 
	C548.676392,1064.014404 549.177246,1063.273193 549.710449,1063.249146 
	C565.624390,1062.529907 579.970947,1056.090698 595.376160,1051.208008 
	C593.668518,1052.962769 591.436523,1054.909912 588.843201,1055.988281 
	C580.974609,1059.259888 573.133423,1062.813354 564.949097,1065.029053 
	C560.073059,1066.348999 554.572449,1065.361938 548.756592,1064.916748 
z"/>
<path fill="#F1F5F0" opacity="1.000000" stroke="none" 
	d="
M767.183350,948.123779 
	C772.523987,940.923279 778.641479,933.706787 785.351257,926.177307 
	C785.419189,934.656677 778.114014,939.855042 774.460632,946.999207 
	C773.861755,948.170532 770.204102,947.777771 767.183350,948.123779 
z"/>
<path fill="#F1F5F0" opacity="1.000000" stroke="none" 
	d="
M436.125610,1018.501709 
	C442.545685,1023.454102 448.985626,1029.128296 455.730072,1035.392212 
	C445.306549,1035.259766 440.865295,1027.076416 436.125610,1018.501709 
z"/>
<path fill="#F1F5F0" opacity="1.000000" stroke="none" 
	d="
M634.601196,1025.909302 
	C638.792419,1020.008545 643.685730,1014.070068 649.216553,1007.915527 
	C648.717041,1016.730103 642.370605,1021.589478 634.601196,1025.909302 
z"/>
<path fill="#F1F5F0" opacity="1.000000" stroke="none" 
	d="
M269.840179,816.254028 
	C269.673126,821.469299 268.946045,827.000244 267.900330,833.203003 
	C263.931030,827.692627 266.723206,822.142700 269.840179,816.254028 
z"/>
<path fill="#F1F5F0" opacity="1.000000" stroke="none" 
	d="
M286.215698,918.029358 
	C289.193634,921.099487 292.073334,924.957153 295.084778,929.450500 
	C288.525726,929.283142 286.923737,924.371216 286.215698,918.029358 
z"/>
<path fill="#F1F5F0" opacity="1.000000" stroke="none" 
	d="
M396.525513,984.603699 
	C399.935577,983.865295 403.850189,983.670654 408.525543,983.512329 
	C409.286255,983.548706 409.538055,984.070557 409.656219,984.335510 
	C405.526276,984.782776 401.278168,984.965088 396.525513,984.603699 
z"/>
<path fill="#F1F5F0" opacity="1.000000" stroke="none" 
	d="
M269.020081,872.669434 
	C270.677094,876.308105 271.892242,880.448181 273.053345,885.324524 
	C268.380524,882.842834 269.060577,877.807495 269.020081,872.669434 
z"/>
<path fill="#F1F5F0" opacity="1.000000" stroke="none" 
	d="
M520.181580,1063.728516 
	C522.881104,1063.251099 525.825623,1063.345581 529.310425,1063.931152 
	C526.680176,1066.631958 523.534546,1066.919556 520.181580,1063.728516 
z"/>
<path fill="#F1F5F0" opacity="1.000000" stroke="none" 
	d="
M276.307068,897.745239 
	C278.069458,900.200500 279.748383,903.432068 281.428711,907.352234 
	C276.388672,906.675842 277.702301,901.835022 276.307068,897.745239 
z"/>
<path fill="#F1F5F0" opacity="1.000000" stroke="none" 
	d="
M416.090576,988.523071 
	C417.793518,990.160706 419.511871,992.471863 421.112091,995.431519 
	C419.364624,993.785522 417.735291,991.491028 416.090576,988.523071 
z"/>
<path fill="#F1F5F0" opacity="1.000000" stroke="none" 
	d="
M267.178894,860.539673 
	C268.100403,862.328003 268.573730,864.538147 268.828308,867.407227 
	C265.098206,866.460815 265.740845,863.757019 267.178894,860.539673 
z"/>
<path fill="#F1F5F0" opacity="1.000000" stroke="none" 
	d="
M622.573853,1035.931152 
	C623.562317,1034.218750 625.198364,1032.472046 627.464844,1030.810303 
	C626.470642,1032.562622 624.846069,1034.229736 622.573853,1035.931152 
z"/>
<path fill="#F1F5F0" opacity="1.000000" stroke="none" 
	d="
M267.184814,706.467285 
	C267.925171,707.711304 268.258759,709.297302 268.370605,711.467163 
	C267.691925,710.303833 267.234985,708.556519 267.184814,706.467285 
z"/>
<path fill="#F1F5F0" opacity="1.000000" stroke="none" 
	d="
M510.113953,1061.770020 
	C511.606598,1061.376709 513.290405,1061.471191 515.381348,1062.088379 
	C513.960693,1062.493408 512.132874,1062.375610 510.113953,1061.770020 
z"/>
<path fill="#F1F5F0" opacity="1.000000" stroke="none" 
	d="
M282.054626,910.480835 
	C283.272522,911.442627 284.445862,913.110413 285.645203,915.401550 
	C284.450836,914.412170 283.230469,912.799438 282.054626,910.480835 
z"/>
<path fill="#F1F5F0" opacity="1.000000" stroke="none" 
	d="
M275.341248,742.416748 
	C276.389435,743.012512 277.022491,743.945557 277.620941,745.456665 
	C276.699615,744.941101 275.812866,743.847595 275.341248,742.416748 
z"/>
<path fill="#F1F5F0" opacity="1.000000" stroke="none" 
	d="
M739.922241,967.766846 
	C740.464417,966.720276 741.664795,965.737244 743.454590,964.704468 
	C742.889526,965.713318 741.734924,966.771851 739.922241,967.766846 
z"/>
<path fill="#F1F5F0" opacity="1.000000" stroke="none" 
	d="
M270.460266,727.329773 
	C271.271301,728.111694 271.919739,729.510864 272.407654,731.479736 
	C271.597321,730.681946 270.947479,729.314453 270.460266,727.329773 
z"/>
<path fill="#F1F5F0" opacity="1.000000" stroke="none" 
	d="
M502.036377,1059.483643 
	C502.999817,1059.179321 504.089417,1059.337646 505.510986,1059.980469 
	C504.616180,1060.292114 503.389343,1060.119141 502.036377,1059.483643 
z"/>
<path fill="#F1F5F0" opacity="1.000000" stroke="none" 
	d="
M486.137573,1053.732178 
	C487.283234,1053.680420 488.645172,1054.162354 490.282288,1055.182861 
	C489.156311,1055.236328 487.755066,1054.751221 486.137573,1053.732178 
z"/>
<path fill="#F1F5F0" opacity="1.000000" stroke="none" 
	d="
M267.615906,678.179199 
	C268.081970,678.987549 268.171204,680.010620 267.947479,681.464905 
	C267.502716,680.728699 267.370911,679.561340 267.615906,678.179199 
z"/>
<path fill="#F1F5F0" opacity="1.000000" stroke="none" 
	d="
M608.380249,1045.889160 
	C608.815125,1044.823975 609.856506,1043.754761 611.488403,1042.772217 
	C611.048218,1043.867432 610.017456,1044.876343 608.380249,1045.889160 
z"/>
<path fill="#F1F5F0" opacity="1.000000" stroke="none" 
	d="
M614.603516,1041.946777 
	C614.983887,1040.849365 615.968201,1039.700684 617.563049,1038.572266 
	C617.184875,1039.693604 616.196228,1040.794556 614.603516,1041.946777 
z"/>
<path fill="#F1F5F0" opacity="1.000000" stroke="none" 
	d="
M430.051575,1010.601440 
	C431.129120,1010.964783 432.254730,1011.923889 433.346619,1013.476868 
	C432.241791,1013.112915 431.170715,1012.155029 430.051575,1010.601440 
z"/>
<path fill="#F1F5F0" opacity="1.000000" stroke="none" 
	d="
M298.074524,934.541565 
	C299.202271,934.911499 300.366333,935.917725 301.624207,937.509155 
	C300.515656,937.122192 299.313263,936.150024 298.074524,934.541565 
z"/>
<path fill="#F1F5F0" opacity="1.000000" stroke="none" 
	d="
M424.142334,1002.358154 
	C425.269623,1002.777893 426.402191,1003.840881 427.545776,1005.521240 
	C426.420441,1005.092896 425.284027,1004.047119 424.142334,1002.358154 
z"/>
<path fill="#F1F5F0" opacity="1.000000" stroke="none" 
	d="
M760.430603,953.892090 
	C760.823914,952.758362 761.867310,951.605957 763.497742,950.349609 
	C763.083374,951.454895 762.082092,952.664124 760.430603,953.892090 
z"/>
<path fill="#F1F5F0" opacity="1.000000" stroke="none" 
	d="
M320.087250,955.274292 
	C321.259430,955.381958 322.568695,956.090271 324.100220,957.331177 
	C322.956451,957.200806 321.590393,956.537781 320.087250,955.274292 
z"/>
<path fill="#F1F5F0" opacity="1.000000" stroke="none" 
	d="
M746.213867,963.847778 
	C746.688965,962.812866 747.795227,961.800781 749.473267,960.722961 
	C748.978333,961.728394 747.911743,962.799561 746.213867,963.847778 
z"/>
<path fill="#F1F5F0" opacity="1.000000" stroke="none" 
	d="
M791.861084,915.174438 
	C791.911499,915.119995 791.991943,915.475037 791.864807,915.480225 
	C791.737671,915.485413 791.810730,915.228821 791.861084,915.174438 
z"/>
<path fill="#F1F5F0" opacity="1.000000" stroke="none" 
	d="
M282.060059,755.410034 
	C282.029602,755.463989 282.051361,755.342651 282.088623,755.241211 
	C282.125854,755.139832 282.090515,755.356018 282.060059,755.410034 
z"/>
<path fill="#367C3E" opacity="1.000000" stroke="none" 
	d="
M290.152893,773.912292 
	C289.709839,772.423401 290.002167,770.992676 290.357727,768.831787 
	C295.810028,762.856384 301.348419,757.754944 306.562134,752.340820 
	C328.045929,730.031128 354.635284,716.685974 384.779388,712.758728 
	C404.153046,710.234802 424.501648,708.964539 443.525635,717.457764 
	C444.957733,718.097168 446.787262,717.846375 449.246399,717.976196 
	C461.486908,724.630005 472.913025,731.317078 485.198914,738.810303 
	C488.166687,742.152466 490.135254,744.822083 492.411438,747.196777 
	C497.251526,752.245972 502.420044,756.987427 507.142883,762.140076 
	C512.964478,768.491638 513.221375,770.862671 508.133331,777.644470 
	C504.564484,782.401245 500.069275,786.452209 496.188568,790.990173 
	C493.865875,793.706299 491.930176,796.753357 489.820557,799.651672 
	C475.053375,806.350037 461.072693,814.304260 448.342896,825.518311 
	C446.159729,825.291260 444.283234,823.961060 443.076355,824.414185 
	C434.557800,827.612976 425.647736,828.267151 416.748383,828.681641 
	C408.891022,829.047546 400.991852,828.980591 393.129425,828.658691 
	C382.525116,828.224548 372.176636,826.541626 361.975677,823.138550 
	C341.737427,816.386963 324.189667,805.703735 309.263000,790.444336 
	C303.523041,784.576477 297.035278,779.440063 290.152893,773.912292 
z"/>
<path fill="#F4F7F4" opacity="1.000000" stroke="none" 
	d="
M562.131409,771.339050 
	C558.397583,778.326599 554.556396,784.582458 550.237732,791.310242 
	C542.452576,791.769958 535.144958,791.757812 526.826294,791.146240 
	C522.260132,783.659485 518.704956,776.772156 515.475830,770.516602 
	C519.344788,762.690247 522.947388,755.402588 526.549927,748.114868 
	C532.674377,748.205200 538.822510,748.011658 544.911926,748.520630 
	C547.471436,748.734680 549.906738,750.433716 552.972412,751.958252 
	C556.372192,758.508362 559.198059,764.557861 562.131409,771.339050 
z"/>
<path fill="#5C9068" opacity="1.000000" stroke="none" 
	d="
M525.694519,748.084229 
	C522.947388,755.402588 519.344788,762.690247 515.475830,770.516602 
	C518.704956,776.772156 522.260132,783.659485 525.912842,791.250732 
	C513.679565,791.077881 502.753754,796.453430 490.589661,799.696411 
	C491.930176,796.753357 493.865875,793.706299 496.188568,790.990173 
	C500.069275,786.452209 504.564484,782.401245 508.133331,777.644470 
	C513.221375,770.862671 512.964478,768.491638 507.142883,762.140076 
	C502.420044,756.987427 497.251526,752.245972 492.411438,747.196777 
	C490.135254,744.822083 488.166687,742.152466 485.893097,738.972046 
	C498.764648,741.569641 511.801849,744.811646 525.694519,748.084229 
z"/>
<path fill="#FAFBFA" opacity="1.000000" stroke="none" 
	d="
M2100.725830,725.722961 
	C2104.039551,734.695984 2108.652588,743.420715 2110.423584,752.688477 
	C2115.778076,780.711731 2114.468994,808.357605 2101.968994,834.686218 
	C2091.736084,856.239014 2074.750732,867.482727 2050.863281,868.685120 
	C2027.105225,869.880920 2008.863892,860.657349 1995.981934,840.715027 
	C1985.505127,824.496582 1982.405029,806.152039 1981.200928,787.432495 
	C1979.883301,766.949402 1981.815674,746.918213 1990.930298,728.000610 
	C2010.231812,687.939514 2060.913086,679.805054 2092.005371,713.361450 
	C2092.742432,720.192383 2094.267090,724.892456 2100.725830,725.722961 
z"/>
<path fill="#F1F5F0" opacity="1.000000" stroke="none" 
	d="
M2100.579590,725.031006 
	C2094.267090,724.892456 2092.742432,720.192383 2092.223633,713.971497 
	C2095.018066,716.894043 2097.725586,720.616516 2100.579590,725.031006 
z"/>
<path fill="#F4F7F4" opacity="1.000000" stroke="none" 
	d="
M1006.705994,748.617981 
	C1011.832825,731.349121 1016.691956,714.835815 1022.170715,696.216309 
	C1034.014160,733.004272 1045.254883,767.919922 1056.845459,803.922424 
	C1051.565796,803.922424 1047.621216,803.922424 1043.676758,803.922424 
	C1026.082397,803.922424 1008.488098,803.922424 989.510742,803.922424 
	C994.046448,784.694458 1000.965515,767.242554 1006.705994,748.617981 
z"/>
<path fill="#F8FAF8" opacity="1.000000" stroke="none" 
	d="
M1211.541748,771.991333 
	C1222.554077,752.294067 1246.007324,746.987427 1262.918091,756.242065 
	C1268.247192,759.158447 1273.827271,763.520081 1276.719971,768.666260 
	C1291.959717,795.778992 1292.992676,823.741760 1278.456543,851.528076 
	C1271.085693,865.617554 1258.781250,871.665100 1242.831177,870.394653 
	C1227.446045,869.169312 1215.849976,861.760315 1210.367554,847.577271 
	C1200.761597,822.727173 1200.977539,797.514771 1211.541748,771.991333 
z"/>
<path fill="#F1F5F0" opacity="1.000000" stroke="none" 
	d="
M2456.330078,751.866638 
	C2458.342285,751.223328 2459.579102,750.662415 2460.875488,750.429321 
	C2488.123047,745.527832 2503.689697,755.834961 2509.734619,782.789307 
	C2510.380127,785.667236 2510.782715,788.599548 2511.537354,792.856262 
	C2484.970459,793.749329 2458.946289,792.790161 2433.050537,793.335510 
	C2430.715576,777.032104 2440.356201,759.841003 2456.330078,751.866638 
z"/>
<path fill="#F8FAF8" opacity="1.000000" stroke="none" 
	d="
M1476.582642,769.664307 
	C1490.369629,794.738892 1489.642334,820.197449 1481.051880,845.639465 
	C1475.831665,861.099915 1464.533081,870.347229 1447.552612,871.155762 
	C1430.643555,871.960938 1417.771484,864.944153 1409.590576,850.213074 
	C1400.885010,834.537415 1399.018311,817.379883 1400.994873,799.877258 
	C1401.845093,792.348267 1403.436035,784.650818 1406.235352,777.647400 
	C1411.692871,763.993469 1420.874634,753.812744 1436.558716,751.925354 
	C1453.026245,749.943726 1466.917358,754.208740 1476.582642,769.664307 
z"/>
<path fill="#F9FAF8" opacity="1.000000" stroke="none" 
	d="
M1855.556030,776.020569 
	C1860.236694,783.962036 1861.797241,792.735718 1862.504639,801.758972 
	C1863.609497,815.854553 1862.768921,829.749451 1857.789917,843.109558 
	C1849.739380,864.711975 1832.736938,874.387146 1810.580322,870.103943 
	C1797.781982,867.629944 1789.063110,859.682251 1783.697021,848.318359 
	C1772.741211,825.116516 1772.422119,801.112122 1781.507202,777.461243 
	C1791.559570,751.292786 1818.500854,743.669128 1843.559814,760.381104 
	C1846.174805,767.809875 1849.195435,773.267822 1855.556030,776.020569 
z"/>
<path fill="#F1F5F0" opacity="1.000000" stroke="none" 
	d="
M1855.506592,775.345215 
	C1849.195435,773.267822 1846.174805,767.809875 1843.934082,760.986450 
	C1847.759399,765.071289 1851.608398,769.870605 1855.506592,775.345215 
z"/>
</svg>